<svg width="224" height="265" viewBox="0 0 224 265" fill="none" xmlns="http://www.w3.org/2000/svg">
<path d="M1 2V213.5L37 179.5V89L98 150L188.5 54V2L98 102.5L1 2Z" fill="black"/>
<path d="M192.5 125L223 109.5C209.518 92.1005 201.445 82.7118 180 71L157 95C175.324 103.431 183.03 110.048 192.5 125Z" fill="black"/>
<path d="M43.5 187L74.5 157C80.1206 225.902 143 263.367 192.5 194L223 208C164.5 290.5 76.2328 280.694 43.5 187Z" fill="black"/>
<path d="M1 2V213.5L37 179.5V89L98 150L188.5 54V2L98 102.5L1 2Z" stroke="black"/>
<path d="M192.5 125L223 109.5C209.518 92.1005 201.445 82.7118 180 71L157 95C175.324 103.431 183.03 110.048 192.5 125Z" stroke="black"/>
<path d="M43.5 187L74.5 157C80.1206 225.902 143 263.367 192.5 194L223 208C164.5 290.5 76.2328 280.694 43.5 187Z" stroke="black"/>
</svg>
